<svg width="60" height="60" viewBox="0 0 60 60" fill="none" xmlns="http://www.w3.org/2000/svg">
<path d="M33.75 41.25H22.5C22.5 30 28.5 26.25 32.625 24C34.125 23.25 35.25 22.5 36 21.75C37.875 19.875 37.125 17.25 36.75 16.5C35.625 13.875 33 11.25 28.125 11.25C20.25 11.25 18.75 18.375 18.75 19.875L7.5 18.375C8.25 12 13.875 0 28.125 0C36.75 0 44.25 4.875 47.25 12C49.875 18.375 48.75 25.125 44.25 29.625C42.375 31.5 40.125 32.625 38.25 33.75C34.875 35.625 33.75 37.5 33.75 41.25Z" fill="#444444"/>
<path d="M35.625 52.5C35.625 56.6438 32.2688 60 28.125 60C23.9812 60 20.625 56.6438 20.625 52.5C20.625 48.3562 23.9812 45 28.125 45C32.2688 45 35.625 48.3562 35.625 52.5Z" fill="#444444"/>
</svg>
